<?xml version="1.0" standalone="no"?>
<!DOCTYPE svg PUBLIC "-//W3C//DTD SVG 20010904//EN"
 "http://www.w3.org/TR/2001/REC-SVG-20010904/DTD/svg10.dtd">
<svg version="1.0" xmlns="http://www.w3.org/2000/svg"
 width="938.000000pt" height="938.000000pt" viewBox="0 0 938.000000 938.000000"
 preserveAspectRatio="xMidYMid meet">

<g transform="translate(0.000000,938.000000) scale(0.100000,-0.100000)"
stroke="none">
<path d="M4665 8744 c-40 -43 -65 -139 -76 -291 -14 -176 -14 -148 10 -368 46
-427 46 -1126 0 -1415 -11 -69 -24 -161 -30 -205 -5 -44 -14 -109 -20 -145 -6
-37 -9 -127 -6 -210 4 -134 11 -195 54 -465 24 -149 28 -438 8 -528 -8 -40
-19 -81 -24 -92 -54 -131 -94 -185 -200 -269 -69 -54 -185 -137 -211 -149 -26
-13 -57 -32 -73 -45 -16 -14 -43 -7 -51 13 -6 16 16 65 49 110 81 111 125 303
127 555 1 164 0 179 -24 241 -31 83 -73 156 -97 169 -16 8 -23 4 -44 -23 -51
-67 -130 -133 -219 -184 -51 -29 -102 -53 -113 -53 -12 0 -26 -5 -32 -11 -6
-6 -42 -13 -80 -16 -104 -6 -307 -44 -425 -79 -26 -8 -52 -14 -58 -14 -13 0
-60 -20 -130 -54 -133 -66 -237 -162 -310 -286 -23 -39 -43 -70 -45 -70 -2 0
-13 21 -25 46 -28 57 -148 178 -232 233 -73 48 -275 150 -321 162 -18 4 -59
17 -92 29 -138 49 -406 89 -595 90 -260 1 -561 43 -745 105 -177 59 -289 132
-341 221 -51 87 -62 43 -63 -251 -1 -232 20 -380 79 -566 65 -203 256 -460
455 -611 99 -74 208 -148 221 -148 7 0 14 -4 16 -8 2 -5 15 -15 30 -23 66 -34
246 -122 278 -135 19 -9 48 -22 63 -30 16 -8 33 -14 39 -14 5 0 24 -6 41 -14
129 -59 578 -176 677 -176 81 0 82 -1 74 -109 -7 -102 12 -254 42 -341 64
-189 186 -351 369 -491 114 -88 146 -109 160 -109 16 0 0 31 -31 61 -99 94
-215 276 -258 402 -24 72 -22 211 6 282 26 68 94 132 168 159 172 62 392 -62
524 -294 179 -313 414 -600 611 -746 154 -113 189 -129 290 -129 88 0 83 -2
218 97 75 55 126 73 141 50 3 -5 -1 -33 -10 -63 -73 -274 -98 -508 -91 -854 6
-247 21 -387 60 -545 62 -247 173 -433 302 -503 34 -19 56 -22 140 -22 94 0
104 2 170 35 122 60 326 226 427 347 74 88 199 298 221 369 3 11 15 44 26 74
45 117 87 310 101 465 19 201 30 439 24 500 -13 124 -59 285 -154 535 -107
280 -125 348 -125 465 0 93 2 104 33 166 30 59 82 121 150 178 21 17 111 63
187 95 17 7 46 20 65 29 88 40 130 57 142 57 8 0 18 4 24 8 5 5 41 19 79 31
39 12 84 29 102 37 17 8 36 14 41 14 6 0 23 6 39 14 15 8 91 45 168 83 77 37
195 100 263 140 68 40 125 73 127 73 2 0 27 14 55 30 49 29 92 53 285 157 165
89 507 253 528 253 7 0 17 4 23 9 12 12 100 47 224 90 78 28 200 54 375 82 41
6 132 9 220 6 146 -5 212 -17 292 -53 17 -8 38 -14 46 -14 8 0 20 -7 27 -15 7
-8 18 -15 25 -15 7 0 18 -7 25 -15 7 -8 22 -15 33 -15 18 0 19 4 13 63 -6 56
-28 169 -56 287 -12 49 -35 118 -56 167 -8 17 -14 35 -14 39 0 31 -139 277
-206 365 -131 171 -368 334 -589 403 -146 45 -186 50 -405 52 -118 1 -251 -2
-295 -7 -110 -11 -302 -36 -414 -54 -52 -8 -127 -17 -167 -21 -98 -9 -316 12
-439 42 -55 14 -118 29 -140 35 -75 18 -229 94 -345 170 -114 74 -241 181
-293 246 -50 62 -137 195 -137 209 0 3 -6 20 -14 37 -57 124 -116 313 -116
371 0 11 -7 49 -15 85 -42 175 -57 238 -65 266 -5 17 -19 64 -31 105 -11 41
-27 93 -34 115 -100 295 -186 483 -289 638 -131 196 -196 271 -268 308 -47 24
-44 24 -73 -7z m1938 -3499 c133 -63 168 -150 111 -272 -37 -77 -210 -249
-323 -321 -44 -28 -163 -86 -222 -107 -183 -67 -522 -106 -621 -72 -61 21 -78
43 -78 99 0 59 27 110 97 183 61 64 193 182 258 232 28 20 55 41 60 45 43 34
105 78 111 78 4 0 15 6 23 14 9 7 43 27 76 44 162 82 226 101 353 101 90 1
110 -2 155 -24z"/>
<path d="M9005 3709 c-49 -176 -219 -406 -442 -599 -59 -51 -112 -98 -118
-104 -21 -23 -313 -245 -376 -286 -68 -44 -89 -75 -123 -175 -62 -184 -71
-235 -71 -410 0 -130 3 -170 19 -215 28 -83 105 -240 139 -285 43 -57 99 -115
111 -115 5 0 17 -6 25 -13 24 -21 131 -47 192 -47 102 0 223 59 329 162 142
137 351 510 415 740 41 149 61 587 35 752 -5 33 -15 95 -21 136 -17 110 -39
227 -78 418 -11 55 -27 73 -36 41z"/>
</g>
</svg>
